<?xml version="1.0" encoding="iso-8859-1"?>
<!-- Generator: Adobe Illustrator 19.0.0, SVG Export Plug-In . SVG Version: 6.00 Build 0)  -->
<svg version="1.1" id="Layer_1" xmlns="http://www.w3.org/2000/svg" xmlns:xlink="http://www.w3.org/1999/xlink" x="0px" y="0px"
	 viewBox="0 0 512 512" style="enable-background:new 0 0 512 512;" xml:space="preserve">
<g>
	<g>
		<path d="M256,0C114.841,0,0,114.841,0,256s114.841,256,256,256s256-114.841,256-256S397.159,0,256,0z M256,495.832
			C123.756,495.832,16.168,388.244,16.168,256S123.756,16.168,256,16.168S495.832,123.756,495.832,256S388.244,495.832,256,495.832z
			"/>
	</g>
</g>
<g>
	<g>
		<path d="M256,61.853L155.838,237.137h200.325L256,61.853z M256,94.442l72.301,126.527H183.699L256,94.442z"/>
	</g>
</g>
<g>
	<g>
		<path d="M155.838,274.863L256,450.147l100.162-175.284H155.838z M183.699,291.032h144.602L256,417.558L183.699,291.032z"/>
	</g>
</g>
<g>
</g>
<g>
</g>
<g>
</g>
<g>
</g>
<g>
</g>
<g>
</g>
<g>
</g>
<g>
</g>
<g>
</g>
<g>
</g>
<g>
</g>
<g>
</g>
<g>
</g>
<g>
</g>
<g>
</g>
</svg>
